<svg width="24" height="24" viewBox="0 0 24 24" fill="none" xmlns="http://www.w3.org/2000/svg">
<g id="Check">
<path id="Vector" d="M20.0713 7.41413L9.72979 17.7556C9.6382 17.8479 9.51352 17.8998 9.38345 17.8998C9.25338 17.8998 9.1287 17.8479 9.03711 17.7556L3.77857 12.497C3.68622 12.4055 3.63428 12.2808 3.63428 12.1507C3.63428 12.0206 3.68622 11.8959 3.77857 11.8043L4.4615 11.1214C4.55309 11.0291 4.67777 10.9771 4.80784 10.9771C4.93791 10.9771 5.06259 11.0291 5.15418 11.1214L9.37857 15.3458L18.6956 6.02876C18.8886 5.84165 19.1954 5.84165 19.3883 6.02876L20.0713 6.72144C20.1636 6.81304 20.2155 6.93772 20.2155 7.06779C20.2155 7.19785 20.1636 7.32253 20.0713 7.41413Z" fill="#3D3A41"/>
</g>
</svg>
