<svg width="25" height="24" viewBox="0 0 25 24" fill="none" xmlns="http://www.w3.org/2000/svg">
<g id="Check">
<path id="Vector" d="M20.7374 7.41425L10.3959 17.7557C10.3043 17.8481 10.1797 17.9 10.0496 17.9C9.91952 17.9 9.79483 17.8481 9.70324 17.7557L4.44471 12.4971C4.35236 12.4056 4.30042 12.2809 4.30042 12.1508C4.30042 12.0207 4.35236 11.8961 4.44471 11.8045L5.12763 11.1215C5.21922 11.0292 5.34391 10.9772 5.47398 10.9772C5.60404 10.9772 5.72873 11.0292 5.82032 11.1215L10.0447 15.3459L19.3618 6.02888C19.5548 5.84177 19.8615 5.84177 20.0545 6.02888L20.7374 6.72157C20.8298 6.81316 20.8817 6.93784 20.8817 7.06791C20.8817 7.19798 20.8298 7.32265 20.7374 7.41425Z" fill="#D6D6D6"/>
</g>
</svg>
